<svg width="54" height="47" viewBox="0 0 54 47" fill="none" xmlns="http://www.w3.org/2000/svg">
  <path d="M9.19979 47C8.31218 47 7.60143 46.7237 7.06752 46.1679C6.53362 45.6153 6.22329 45.0495 6.1332 44.4737L0 2.11494V1.91523C0 1.51581 0.143486 1.17297 0.433795 0.883391C0.724104 0.59381 1.0678 0.450684 1.46823 0.450684H13.8681C15.333 0.450684 16.1338 1.04982 16.2673 2.24476L18.5331 20.9976L21.266 12.6863C21.3561 12.3768 21.5563 11.9773 21.8666 11.4881C22.1769 11.0021 22.7342 10.7558 23.5317 10.7558H30.3323C31.1331 10.7558 31.6871 10.9988 31.9974 11.4881C32.3077 11.9773 32.5079 12.3768 32.598 12.6863L35.3309 20.9311L37.5967 2.24476C37.7302 1.04649 38.531 0.450684 39.9959 0.450684H52.3958C52.7962 0.450684 53.1399 0.59381 53.4302 0.883391C53.7172 1.17297 53.864 1.51581 53.864 1.91523V2.11494L47.7308 44.4737C47.6841 45.0495 47.3871 45.6153 46.8299 46.1679C46.2726 46.7237 45.5518 47 44.6642 47H35.1307C34.2431 47 33.5858 46.767 33.1653 46.301C32.7415 45.835 32.4879 45.4689 32.3978 45.2059L26.932 31.5723L21.4662 45.2059C21.3761 45.4722 21.1225 45.8384 20.6987 46.301C20.2749 46.767 19.6209 47 18.7333 47H9.19979Z" fill="#1E1E1E"/>
	<style>
    @media (prefers-color-scheme:dark){:root{filter:invert(100%)}}
  </style>
</svg>
